<?xml version="1.0" encoding="UTF-8" standalone="no"?>
<svg
   width="100px"
   height="100px"
   viewBox="0 0 100 100"
   version="1.1"
   id="svg13"
   xmlns="http://www.w3.org/2000/svg"
   xmlns:svg="http://www.w3.org/2000/svg"
   xmlns:rdf="http://www.w3.org/1999/02/22-rdf-syntax-ns#"
   xmlns:cc="http://creativecommons.org/ns#"
   xmlns:dc="http://purl.org/dc/elements/1.1/">
  <defs
     id="defs17" />
  <!-- Generator: Sketch 52.6 (67491) - http://www.bohemiancoding.com/sketch -->
  <title
     id="title2">Hundred Points (1F4AF)</title>
  <desc
     id="desc4">Created with Sketch.</desc>
  <path
     id="path968"
     style="fill:#ffffff"
     d="m 79.892578,1.7109375 c -3.36693,0 -5.62243,1.2927902 -8.322266,2.9472656 C 68.79687,6.3577849 66.740189,8.2330042 64.982422,10.515625 64.016367,8.9832899 61.656374,7.347203 59.761719,7.0722656 57.916414,4.6388731 54.905504,3.8326297 53.035156,3.7304688 h -0.002 c -0.474806,-0.025787 -0.941639,-0.026173 -1.470703,-0.017578 -0.211497,0.00344 -0.213236,0.00391 -0.306641,0.00391 -2.722757,0 -5.24004,0.8223515 -7.960937,2.1601562 -1.773967,0.8722194 -3.290797,1.9032453 -4.658203,3.0214844 -0.01598,-0.1001936 -0.02231,-0.1391359 -0.03906,-0.2441406 -0.0056,-0.038091 -0.01053,-0.076213 -0.01953,-0.1386719 a 5.8743195,5.8743195 0 0 0 -0.002,-0.00195 c -0.01225,-0.084744 -0.03452,-0.2235559 -0.05859,-0.3710938 -8.16e-4,-0.00563 -0.005,-0.017717 -0.0059,-0.023437 a 5.8743195,5.8743195 0 0 0 0,-0.013672 v -0.00195 a 5.8743195,5.8743195 0 0 0 -0.375,-1.8203125 L 38.048828,6.0527344 A 5.8743195,5.8743195 0 0 0 36.400391,3.7011719 c -0.08632,-0.074576 -0.154036,-0.1331885 -0.220703,-0.1894531 -0.03333,-0.028132 -0.06178,-0.050874 -0.119141,-0.097656 -0.0112,-0.00913 -0.0438,-0.032961 -0.05859,-0.044922 -0.07548,-0.063167 -0.134931,-0.079739 -0.205078,-0.1347656 -0.08229,-0.064299 -0.131152,-0.10949 -0.212891,-0.1679688 -0.131683,-0.08379 -0.37873,-0.2362296 -0.378906,-0.2363281 -1.6e-5,-8.9e-6 -0.0797,-0.037581 -0.107422,-0.050781 C 34.954115,2.6950693 34.812836,2.5699084 34.650391,2.4882812 33.825759,2.066645 32.694326,1.6898557 31.208984,1.7539062 29.637421,1.823645 28.045523,2.5562591 27.310547,3.0898438 a 5.8743195,5.8743195 0 0 0 -0.257813,0.1992187 c -0.782354,0.637174 -1.517551,1.5173167 -1.986328,2.1621094 a 5.8743195,5.8743195 0 0 0 -0.002,0.00195 c -0.04974,0.06849 -0.05202,0.069499 -0.07813,0.1054688 h 0.002 C 24.88482,5.7010483 24.85574,5.7380815 24.869141,5.7207031 a 5.8743195,5.8743195 0 0 0 -0.105469,0.1425781 c -0.07399,0.1022387 -0.371165,0.4974848 -0.701172,0.9257813 -0.481006,0.6242692 -1.016353,1.2987502 -1.585938,1.9882813 -1.575634,1.9074472 -3.167581,3.6439032 -4.605468,4.9980472 -0.270437,0.254686 -0.541817,0.502029 -0.816406,0.74414 -1.278422,1.127211 -2.680281,2.206022 -4.144532,3.220703 -0.356072,0.246748 -0.917731,0.620707 -1.36914,0.917969 -0.225705,0.148631 -0.425079,0.280174 -0.570313,0.375 -0.07262,0.04741 -0.130924,0.0853 -0.173828,0.113281 -0.02145,0.01399 -0.03951,0.0259 -0.05664,0.03711 -0.0086,0.0056 -0.01563,0.0092 -0.03125,0.01953 -0.01502,0.0099 -0.467751,0.346145 -0.503906,0.373047 -0.0012,0.001 -0.0027,0.0029 -0.0039,0.0039 -1.1036126,0.909625 -2.4822814,2.339872 -3.1191408,4.345703 -0.1565098,0.492934 -0.4393923,1.877189 -0.3808593,2.873047 0.057684,0.981422 0.1921719,1.455569 0.3320312,2.134766 0.4385271,2.241613 0.8891316,4.522927 3.5722659,6.646484 0.7928,0.627459 1.88743,1.047903 3.039062,1.308594 -1.346931,4.322603 -2.423406,7.879135 -3.160156,10.861328 -6.86e-4,0.0027 -0.0013,0.0051 -0.002,0.0078 -0.8116973,3.216451 -1.3927671,6.103235 -1.9472658,9.328126 a 5.8743195,5.8743195 0 0 0 -0.00391,0.02344 c -0.1134917,0.675223 -0.229134,1.281808 -0.4355469,2.302734 a 5.8743195,5.8743195 0 0 0 0,0.002 c -0.00374,0.01839 -0.00994,0.04634 -0.017578,0.08398 -0.016379,0.08069 -0.039461,0.201041 -0.066406,0.333984 -0.05389,0.265888 -0.1166107,0.571506 -0.1464844,0.720703 -0.7355124,3.673287 -1.0665283,6.673653 -0.9570313,10.351563 1.95e-5,7.08e-4 -1.96e-5,0.0012 0,0.002 0.085181,3.081585 0.9584601,5.352299 2.59375,7.683594 0.6108919,0.870897 1.4552789,2.042057 3.0253909,2.818359 -0.136218,0.06824 -0.314033,0.110035 -0.449219,0.181641 C 10.71058,82.314206 9.0295262,83.596327 8.1132812,85.5 7.1970363,87.403673 7.2854657,88.986762 7.3105469,89.880859 a 5.8743195,5.8743195 0 0 0 0,0.01953 c 0.062219,1.986989 0.9694061,4.143253 2.3085937,5.515625 1.3391874,1.372371 2.8593394,2.022133 4.1757814,2.357422 2.632885,0.670576 4.438543,0.810726 7.308594,-0.841797 -0.882177,0.507942 0.09138,-0.01641 1.037109,-0.332032 0.945731,-0.315621 2.262767,-0.723061 3.777344,-1.166015 3.029154,-0.885908 6.869505,-1.923382 10.492187,-2.816406 a 5.8743195,5.8743195 0 0 0 0.02344,-0.0059 c 3.194287,-0.80209 9.23207,-1.810837 14.851562,-2.392578 a 5.8743195,5.8743195 0 0 0 0.01367,0 c 5.738698,-0.608991 11.398312,-1.051696 14.125,-1.265625 2.187447,-0.163195 7.567989,-0.134789 11.617188,-0.744141 1.562341,-0.235113 3.139291,-0.474833 4.515625,-0.75 0.688166,-0.137583 1.295058,-0.262443 2.068359,-0.515625 0.386651,-0.126591 0.797709,-0.243565 1.546875,-0.685547 0.374583,-0.22099 0.858084,-0.50978 1.494141,-1.220703 0.636056,-0.710922 1.529576,-2.113818 1.53125,-3.988281 0.0029,-3.222203 -2.546971,-5.55486 -4.212891,-6.390625 -1.905097,-0.955753 -2.34184,-0.860125 -3.572266,-1.167969 -0.802725,-0.200836 -1.641757,-0.351919 -2.474609,-0.515625 0.502921,-0.127425 0.991113,-0.248297 1.585938,-0.460937 0.358526,-0.128168 0.729767,-0.247543 1.404296,-0.642578 0.337265,-0.197518 0.766281,-0.44166 1.386719,-1.089844 0.620439,-0.648184 1.667533,-1.98497 1.669922,-4.134766 0.0016,-1.444353 -0.669397,-3.068878 -1.429687,-3.996093 -0.760291,-0.927216 -1.452852,-1.339466 -1.951172,-1.619141 -0.993275,-0.557462 -1.462119,-0.66041 -1.876954,-0.8125 -0.507994,-0.187408 -1.303658,-0.414125 -1.960937,-0.626953 1.546493,-0.462662 3.059119,-1.034237 4.4375,-1.810547 a 5.8743195,5.8743195 0 0 0 0.0332,-0.01953 c 2.663958,-1.523978 4.976461,-3.501182 6.800781,-5.84375 0.418921,-0.528821 0.788126,-1.066823 1.117188,-1.59961 0.194235,-0.314491 0.3785,-0.63179 0.564453,-0.964843 0.0673,-0.120539 0.160093,-0.287536 0.248047,-0.447266 0.04398,-0.07986 0.08412,-0.154005 0.113281,-0.207031 0.01458,-0.02651 0.0253,-0.04811 0.0332,-0.0625 0.004,-0.0072 0.0076,-0.01364 0.0098,-0.01758 0.0011,-0.002 0.002,-0.0024 0.0039,-0.0059 0.0025,-0.0046 0.0059,-0.01172 0.0059,-0.01172 0,0 -10.297987,-5.651556 -10.300781,-5.646484 l 10.367188,5.521484 c 0.478863,-0.930949 0.90243,-1.815643 1.27539,-2.677734 a 5.8743195,5.8743195 0 0 0 0.01172,-0.02539 c 0.655271,-1.534015 1.192747,-3.003481 1.611328,-4.38086 l -0.0039,0.01758 c -0.181024,0.589306 -0.01155,0.03865 0.0078,-0.02148 0.01937,-0.06013 0.0463,-0.14686 0.08008,-0.251953 0.06755,-0.210186 0.159201,-0.495098 0.257812,-0.804688 0.197223,-0.619179 0.407294,-1.278257 0.558594,-1.798828 0.623458,-2.145108 1.083031,-4.403192 1.378906,-7.005859 0.539789,-4.748263 0.50144,-10.604945 -0.0039,-14.894532 C 95.07226,14.079333 94.792525,12.015739 94.273438,10.085938 94.013894,9.1210365 93.752635,8.1825499 92.978516,6.9589844 92.204396,5.7354188 90.124447,3.7070312 87.287109,3.7070312 c -0.238852,1e-7 -0.674668,-0.029229 -1.269531,0.066406 -1.894433,-1.375433 -4.379289,-2.0625 -6.125,-2.0625 z M 36.001953,3.3691406 c -0.0231,-0.01868 -0.03464,-0.029904 -0.08984,-0.072266 -0.04527,-0.034743 -0.09298,-0.073802 -0.255859,-0.1855469 z m 2.914063,7.8710934 0.0078,0.08789 c -0.0015,-0.02065 -0.0063,-0.03996 -0.0078,-0.06055 -7.04e-4,-0.0084 7.23e-4,-0.01895 0,-0.02734 z m -11.826172,3.189454 a 5.8743195,5.8743195 0 0 0 1.15039,3.341796 c -0.570415,-0.797777 -1.251961,-1.750121 -1.251953,-1.75 2.5e-5,3.45e-4 0.0045,-0.962021 0.03125,-1.169922 0.02678,-0.2079 0.05116,-0.327907 0.07031,-0.421874 z m 30.347656,4.61914 -0.04102,0.01953 c 0.0055,-0.0025 0.01017,-0.0092 0.01563,-0.01172 0.0079,-0.0036 0.01752,-0.0042 0.02539,-0.0078 z m -27.509766,1.083984 a 5.8743195,5.8743195 0 0 0 1.03711,0.210938 c -0.08542,0.230938 -0.136805,0.400916 -0.21875,0.625 -0.01132,0.0022 -0.193364,0.03711 -0.19336,0.03711 2.3e-5,10e-6 -0.444471,-0.620534 -0.625,-0.873047 z m 49.908204,0.421876 c -0.04644,0.340969 -0.09072,0.682363 -0.142579,1.029296 -0.09864,0.659831 -0.20773,1.339031 -0.371093,2.304688 -0.08133,0.480739 -0.455823,2.662308 -0.542969,3.173828 -0.136749,0.802684 -0.358227,1.787981 -0.662109,2.904297 -0.272819,1.002204 -0.60634,2.094123 -0.996094,3.267578 -0.50169,1.510472 -0.759392,2.218425 -1.652344,4.621094 -0.390045,1.021947 -0.754523,1.850648 -1.271484,2.820312 -0.104603,0.193154 -0.13885,0.257447 -0.246094,0.455078 a 5.8743195,5.8743195 0 0 0 -0.002,0.002 c -0.05597,0.08599 -0.106798,0.156121 -0.189453,0.251954 a 5.8743195,5.8743195 0 0 0 -0.05273,0.06055 c -0.03266,0.03892 -0.17535,0.148858 -0.234375,0.208985 -0.01848,-0.821103 0.0039,-1.746103 0.125,-2.886719 0.230678,-2.093669 0.690737,-4.361134 1.402344,-6.978516 9.96e-4,-0.0037 9.57e-4,-0.0061 0.002,-0.0098 1.211437,-4.367094 1.407893,-4.878438 2.949219,-7.921875 0.953617,-1.882974 1.289848,-2.583192 1.884766,-3.302734 z m -30.925782,4 c -0.117543,0.960097 -0.238272,1.917401 -0.330078,2.896484 -0.08055,0.859069 -0.136798,1.550957 -0.173828,2.052734 a 5.8743195,5.8743195 0 0 0 -0.002,0.01953 c -0.06461,0.918701 -0.244079,2.195417 -0.535156,3.642578 a 5.8743195,5.8743195 0 0 0 -0.002,0.01172 c -0.47981,2.410012 -1.231788,5.081121 -2.201172,7.927735 -0.398116,1.136836 -0.77699,2.076441 -1.308594,3.164062 -0.127679,0.25733 -0.20314,0.405548 -0.275391,0.550781 -7.17e-4,0.0014 -0.0012,0.0044 -0.002,0.0059 a 5.8743195,5.8743195 0 0 0 -0.002,0.002 c -0.07398,0.124054 -0.139743,0.219767 -0.228516,0.332031 a 5.8743195,5.8743195 0 0 0 -0.04883,0.06055 c -0.01147,0.01491 -0.05843,0.05529 -0.07227,0.07227 -7.88e-4,-0.01925 -0.0052,-0.01773 -0.0059,-0.03711 a 5.8743195,5.8743195 0 0 0 0,-0.0098 c -0.03758,-1.016305 0.0078,-2.23148 0.146485,-3.65625 0.285778,-2.830332 0.780847,-5.511819 1.371093,-7.564453 1.047375,-3.642338 2.160761,-6.465339 3.615235,-9.376953 0.02239,-0.04482 0.03334,-0.05126 0.05469,-0.09375 z M 44.492188,44.125 c -0.547467,0.799937 -0.384006,0.617831 -0.347657,0.599609 a 5.8743195,5.8743195 0 0 0 -0.05469,0.08594 z m 5.515624,2.550781 7.619141,3.720703 c 0.0084,0.0199 0.01887,0.03872 0.02734,0.05859 -3.038522,-1.50851 -7.638211,-3.795676 -7.646485,-3.779297 z m 6.675782,1.646485 c 0.0026,0.009 0.0091,0.01644 0.01172,0.02539 0.0033,0.01123 0.0025,0.02393 0.0059,0.03516 z m -29.775391,3.511718 c 0.0023,0.0088 0.0074,0.01661 0.0098,0.02539 0.0027,0.01002 0.0031,0.02123 0.0059,0.03125 z m 0.566406,1.353516 c 0.460604,1.355024 0.917612,2.717325 1.650391,3.953125 a 5.8743195,5.8743195 0 0 0 0.002,0.002 c 1.09309,1.840823 2.544403,3.50472 4.359375,4.833984 -3.637061,1.22898 -5.455742,1.586084 -7.884766,3.203126 -0.335122,0.223096 -0.679373,0.689251 -1.03125,1.054687 0.571144,-2.943598 1.086249,-5.600758 1.494141,-7.703125 a 5.8743195,5.8743195 0 0 0 0.0039,-0.02148 c 0.07687,-0.404434 1.058923,-3.896593 1.40625,-5.322266 z M 59.4375,53.957031 c 0.941371,1.329955 2.097324,2.516723 3.453125,3.525391 -1.028637,0.02625 -2.350518,0.04674 -4.455078,0.162109 -0.621039,0.03161 -1.391989,0.159741 -2.050781,0.208985 0.726634,-0.769626 1.472126,-1.524889 2.083984,-2.382813 0.363263,-0.500644 0.676441,-1.007831 0.96875,-1.513672 z m 4.134766,4.09375 c 0.0094,0.0063 0.01986,0.0094 0.0293,0.01563 0.01269,0.0083 0.02243,0.01912 0.03516,0.02734 z m -29.953125,4.054688 c 0.0092,0.0066 0.02013,0.009 0.0293,0.01563 0.01383,0.0098 0.02324,0.02343 0.03711,0.0332 z M 22.751953,75.597656 c 0.202575,0.596481 0.417694,1.197849 0.814453,1.802735 0.06191,0.09439 0.176165,0.152546 0.244141,0.24414 -0.09343,0.0263 -0.305823,0.06414 -0.394531,0.08984 a 5.8743195,5.8743195 0 0 0 -0.0293,0.0078 c -0.607529,0.179538 -0.896654,0.270065 -1.44336,0.429687 0.362267,-0.757642 0.601396,-1.483771 0.72461,-2.142578 0.0096,-0.04942 0.0697,-0.358119 0.08398,-0.431641 z" />
  <path
     id="Fill-1"
     style="fill:#d40000;stroke:none;stroke-width:1"
     d="m 79.892578,7.5839844 c -1.237382,0 -2.954478,0.6729278 -5.253906,2.0820312 -2.513787,1.5404634 -3.507177,2.4556184 -5.0625,4.4941404 -0.0042,0.0055 -1.095425,1.412828 -1.361328,1.779297 -0.441371,0.608298 -0.782011,1.159148 -1.111328,1.814453 -0.167918,0.334137 -0.332819,0.694126 -0.498047,1.09375 -1.677844,4.081088 -3.0209,8.598647 -3.84375,12.814453 -0.0719,0.390993 -0.113625,0.611196 -0.146485,0.791016 -0.05643,0.308799 -0.103047,0.57136 -0.148437,0.828125 -0.661978,3.745029 -0.931328,6.636166 -0.742188,9.839844 0.135789,1.539752 0.288516,2.525137 0.603516,3.576172 0.358686,1.245293 0.891184,2.421366 1.597656,3.513672 0.773888,1.194836 1.754444,2.210325 2.898438,2.949218 1.171576,0.779034 2.597968,1.25516 4.048828,1.371094 2.52139,0.201927 5.005728,-0.492105 7.447265,-1.867188 2.033802,-1.163484 3.777342,-2.669562 5.09961,-4.373046 0.255113,-0.319982 0.495614,-0.668852 0.736328,-1.058594 0.140418,-0.227354 0.277466,-0.462552 0.433594,-0.742188 0.09075,-0.162538 0.396118,-0.718241 0.386718,-0.701172 0.430728,-0.837374 0.797072,-1.604897 1.107422,-2.322265 0.578458,-1.354193 1.047628,-2.639732 1.394532,-3.78125 0.0074,-0.02409 0.671264,-2.076593 0.878906,-2.791016 0.536726,-1.846692 0.919946,-3.712067 1.183594,-6.03125 0.463971,-4.081332 0.421872,-9.944968 -0.002,-13.542969 -0.577734,-4.90458 -1.170536,-7.7402339 -2.251953,-7.7402339 -0.885947,0 -0.912085,0.2254932 -1.009765,3.5937499 -0.0879,3.030831 -0.140926,4.121415 -0.332032,5.833984 -0.06815,0.610687 -0.132165,1.158867 -0.197265,1.671876 -0.07792,0.614022 -0.158274,1.185952 -0.246094,1.773437 -0.105105,0.703077 -0.221319,1.426774 -0.388672,2.416016 -0.08682,0.513176 -0.458219,2.68223 -0.542969,3.179687 -0.177996,1.044786 -0.442778,2.203209 -0.785156,3.460938 -0.307714,1.130393 -0.673306,2.322074 -1.089844,3.576172 -0.521898,1.571313 -0.819583,2.395012 -1.730468,4.845703 -0.457142,1.199441 -0.940673,2.301153 -1.583985,3.507812 -0.144152,0.266385 -0.144239,0.264966 -0.294921,0.542969 -0.01273,0.0164 -0.04185,0.06586 -0.08594,0.144531 -0.07098,0.126641 -0.09095,0.160285 -0.126953,0.208985 -0.200719,0.308392 -0.419836,0.599339 -0.666016,0.884765 -0.504666,0.60152 -1.172381,1.214987 -1.941406,1.78125 -1.556615,1.162273 -3.582959,1.913613 -4.882813,1.789063 -0.709629,-0.07407 -1.175639,-0.264576 -1.675781,-0.722657 -0.280616,-0.239671 -0.557194,-0.577393 -0.830078,-1.007812 -0.245775,-0.366116 -0.504656,-0.895282 -0.689453,-1.380859 -0.340967,-0.893424 -0.544846,-2.110141 -0.597656,-3.476563 -0.04983,-1.235537 0.0094,-2.582131 0.167968,-4.070313 0.273082,-2.483646 0.805025,-5.059899 1.576172,-7.894531 1.251934,-4.514362 1.758163,-5.838758 3.376954,-9.035156 1.232278,-2.433205 1.70682,-4.051531 4.589843,-6.429687 2.883022,-2.378157 4.493399,-2.233481 5.394531,-2.615235 1.36486,-0.578206 1.222359,-1.98541 0.240235,-3.3007811 C 82.229669,7.9120287 81.29071,7.5839844 79.892578,7.5839844 Z m -48.457031,0.00391 c -0.241235,0.00134 -0.443109,0.08836 -0.673828,0.2558594 -0.345842,0.2816646 -0.57466,0.5507214 -0.945313,1.0605469 -0.03832,0.052769 -0.03847,0.053529 -0.07617,0.1054687 -0.09758,0.1343562 -0.15582,0.2152681 -0.21875,0.296875 -0.158061,0.2184222 -0.455858,0.6131005 -0.80664,1.0683596 -0.518179,0.672514 -1.092646,1.396446 -1.708985,2.142578 -1.694123,2.050888 -3.428541,3.952103 -5.107421,5.533203 -0.311214,0.293089 -0.630307,0.585198 -0.958985,0.875 -1.480367,1.30527 -3.061722,2.51867 -4.683594,3.642578 -0.874044,0.605686 -2.309906,1.535616 -2.316406,1.541016 -0.703595,0.579501 -1.087942,1.052582 -1.259765,1.59375 -0.181842,0.572718 -0.163074,0.733414 0.113281,2.085937 0.616091,3.149336 2.002973,4.388721 3.796875,2.863282 2.742433,-1.880614 4.690355,-3.569396 5.24414,-3.886719 0.575275,-0.329636 1.25105,-0.904282 1.509766,-0.857422 -0.286063,0.915014 -1.515109,4.569618 -1.599609,4.839844 -0.297958,0.925109 -0.607419,1.887266 -1.259766,3.914062 -0.304544,0.946091 -0.547041,1.695104 -0.779297,2.416016 -1.678659,5.318015 -2.727425,8.876194 -3.52539,12.109375 -0.772207,3.059026 -1.316941,5.762524 -1.855469,8.894531 -0.126666,0.753604 -0.258696,1.445546 -0.470703,2.494141 0.02416,-0.119482 -0.176486,0.869053 -0.228516,1.128906 -0.69326,3.462271 -0.945123,5.731199 -0.845703,9.03711 0.03982,1.446891 0.695458,3.283091 1.53125,4.474609 0.446139,0.636023 0.905554,1.035287 1.363281,1.091797 0.618912,0.0764 1.050754,-0.452133 1.220703,-1.361328 0.179973,-0.927023 1.300202,-6.688613 1.634766,-8.41211 0.725307,-3.736408 1.286202,-6.63186 1.769531,-9.123047 0.534864,-2.813979 3.733372,-15.420728 6.251953,-23.710937 0.336285,-1.106924 0.688354,-2.228981 1.054688,-3.361328 1.814787,-5.609553 5.288614,-14.973723 5.240234,-14.736328 0.167556,-0.817412 0.237988,-1.531793 0.242188,-2.257813 3e-4,-0.09766 6.53e-4,-0.171029 0.002,-0.339844 0.0053,-0.677911 0.0019,-0.945088 -0.02539,-1.261718 -0.04616,-0.649297 -0.110211,-1.170201 -0.222656,-1.8847662 -0.02246,-0.1419487 -0.02285,-0.1409809 -0.04492,-0.2792969 -0.01559,-0.1079156 -0.01624,-0.1088924 -0.0332,-0.2265625 -0.01705,-0.1179403 -0.01677,-0.1170322 -0.05859,-0.3671875 -0.01717,-0.1183886 -0.03763,-0.2184691 -0.06836,-0.3125 0.004,-0.019669 0.01012,-0.049659 0.01172,-0.296875 L 32.560547,8.1464844 C 32.411069,8.0173413 32.334031,7.9528238 32.332031,7.953125 32.299781,7.9224 32.273332,7.8998208 32.232422,7.8730469 32.173365,7.823623 32.088947,7.7679832 31.998047,7.7226562 31.809663,7.6253334 31.615825,7.5727796 31.435547,7.5878906 Z m 20.222656,1.9980469 c -0.228653,0.00372 -0.301698,0.00391 -0.402344,0.00391 -1.384815,0 -3.161524,0.4731587 -5.36914,1.5585937 -2.636938,1.296524 -4.078663,2.419073 -5.40625,4.068359 -1.558693,1.936393 -2.81352,3.914515 -3.578125,5.931641 -2.205954,5.852576 -3.188884,8.975922 -3.878906,12.832031 -0.07172,0.425442 -0.111682,0.665248 -0.144532,0.861328 -0.0564,0.336651 -0.103087,0.622485 -0.148437,0.902344 -0.660848,4.07786 -0.928866,7.223975 -0.740235,10.708984 0.135095,1.670439 0.284728,2.741977 0.597657,3.880859 0.356825,1.351243 0.886805,2.624903 1.589843,3.810547 0.770847,1.298149 1.748042,2.402074 2.890625,3.207031 1.174053,0.85153 2.606552,1.372931 4.064453,1.5 2.532232,0.221199 5.024528,-0.538292 7.470704,-2.041015 2.033528,-1.268902 3.775967,-2.90915 5.095703,-4.763672 0.254205,-0.347787 0.492788,-0.72523 0.732422,-1.148437 0.139899,-0.247071 0.277878,-0.504385 0.433593,-0.808594 0.0906,-0.177008 0.394066,-0.784035 0.384766,-0.765625 0.429157,-0.910101 0.795794,-1.744626 1.105469,-2.525391 0.577236,-1.473971 1.044585,-2.873222 1.390625,-4.115234 0.858427,-3.033186 1.685142,-7.06314 1.867187,-9.736328 0.335498,-4.926511 0.759766,-12.595564 0.759766,-14.609375 0,-1.842224 -0.01204,-2.621001 -0.07227,-3.414063 -0.108706,-1.43128 -0.30115,-2.091797 -1.072265,-2.091797 -1.097243,0 -2.403576,2.731624 -3.607422,7.246094 -0.272689,1.022594 -0.518783,2.366102 -0.740235,3.958984 C 54.70578,25.296441 54.555027,26.642463 54.427734,28 c -0.07692,0.820322 -0.130042,1.474557 -0.164062,1.935547 -0.08937,1.270859 -0.309282,2.760741 -0.636719,4.388672 -0.546068,2.74282 -1.369256,5.653962 -2.404297,8.691406 -0.458395,1.311891 -0.943049,2.514688 -1.58789,3.833984 -0.144346,0.290952 -0.217192,0.437505 -0.294922,0.59375 -0.01429,0.02088 -0.04048,0.07354 -0.08398,0.158203 -0.07218,0.140459 -0.09503,0.178626 -0.132812,0.234376 -0.200172,0.335656 -0.418571,0.653869 -0.666016,0.966796 -0.506028,0.657885 -1.177343,1.328893 -1.947265,1.947266 -1.553258,1.265016 -3.570971,2.081718 -4.857422,1.947266 -0.701884,-0.07991 -1.162012,-0.285547 -1.66211,-0.785157 -0.282348,-0.263015 -0.56079,-0.634047 -0.835937,-1.107421 -0.247825,-0.40263 -0.51068,-0.984757 -0.697266,-1.519532 -0.344593,-0.98487 -0.550355,-2.321968 -0.603515,-3.822265 -0.05003,-1.352951 0.01088,-2.827241 0.169922,-4.455079 0.315268,-3.127562 0.85406,-6.107846 1.572265,-8.605468 1.13373,-3.942644 2.40177,-7.167786 4.005859,-10.378906 1.047792,-2.097504 2.038762,-3.248372 4.025391,-4.992188 0.1185,-0.103917 0.117392,-0.102911 0.236328,-0.207031 0.141511,-0.123912 0.143108,-0.123228 0.285157,-0.248047 0.407028,-0.358238 0.892293,-0.682977 1.441406,-0.97461 0.544951,-0.289421 1.127957,-0.534999 1.736328,-0.74414 0.401306,-0.137959 0.560856,-0.1845 1.128906,-0.341797 1.374327,-0.368615 2.023282,-0.569519 2.519531,-0.798828 0.702993,-0.31806 1.029502,-0.874426 0.917969,-1.554688 -0.07331,-0.447136 -0.30179,-0.874525 -0.75,-1.529297 -0.476951,-0.6967587 -1.288244,-0.9750679 -2.427734,-1.0371089 -0.309087,-0.01683 -0.567531,-0.017716 -1.056641,-0.00977 z M 65.285156,63.310547 c -0.366142,-0.0098 -0.725428,-0.01003 -1.072265,0.002 -0.975201,0.03591 -2.970547,0.059 -5.478516,0.197266 -2.555814,0.130069 -5.623857,0.436097 -8.636719,0.880859 -6.041296,0.87614 -12.019369,2.239787 -14.164062,2.962891 -8.258246,2.865354 -7.996849,2.599889 -7.857422,5.322265 0.153785,2.749685 2.012556,2.228531 3.43164,1.884766 1.419085,-0.343765 6.351558,-1.737145 11.734376,-3.25 2.686396,-0.770893 7.120173,-1.516753 11.375,-1.878906 4.245503,-0.380003 8.137219,-0.64702 10.11914,-0.744141 1.985465,-0.0898 5.714727,0.02399 8.494141,-0.642578 1.403089,-0.333117 4.880414,-1.003852 4.880859,-1.404297 4.43e-4,-0.400445 -0.549212,-0.592638 -1.417969,-0.912109 -0.868669,-0.320467 -2.074799,-0.724873 -3.458984,-1.105469 -2.418231,-0.670946 -5.386222,-1.243904 -7.949219,-1.3125 z m 1.240235,14.664062 c -1.029993,-0.0022 -2.041235,0.003 -3.013672,0.0039 -3.889748,0.0035 -4.087736,-0.02323 -7.480469,0.257812 -3.419887,0.272134 -7.54564,0.747055 -11.638672,1.361328 -8.198722,1.216654 -16.396337,2.923739 -19.341797,3.777344 -11.361989,3.35773 -11.945717,3.611974 -11.86914,6.341797 0.08641,2.759526 3.750619,2.838748 4.990234,2.125 1.239616,-0.71375 9.407887,-3.097616 16.832031,-4.927735 3.708842,-0.931295 9.814991,-1.930388 15.675782,-2.537109 5.853866,-0.621213 11.589299,-1.068047 14.30664,-1.28125 2.720593,-0.20297 8.085918,-0.22974 11.179688,-0.695312 3.093769,-0.465574 6.157841,-0.951937 6.158203,-1.357422 3.66e-4,-0.405485 -0.290958,-0.791789 -0.97461,-1.134766 -0.683652,-0.342976 -3.737157,-1.110468 -5.634765,-1.40625 -2.845453,-0.448858 -6.099475,-0.520648 -9.189453,-0.527344 z" />
  <metadata
     id="metadata1001">
    <rdf:RDF>
      <cc:Work
         rdf:about="">
        <dc:title>Hundred Points (1F4AF)</dc:title>
      </cc:Work>
    </rdf:RDF>
  </metadata>
</svg>
