<?xml version="1.0" encoding="UTF-8" standalone="no"?>
<svg
   width="4712.91"
   height="1575.9"
   viewBox="0 0 4712.91 1575.9"
   version="1.1"
   id="svg7"
   xmlns="http://www.w3.org/2000/svg"
   xmlns:svg="http://www.w3.org/2000/svg">
  <defs
     id="defs4">
    <style
       id="style2">
      .cls-1 {
        fill: #da2b00;
        fill-rule: evenodd;
      }
    </style>
  </defs>
  <path
     id="snteam_logo_png_2"
     class="cls-1"
     d="M5839.6,2889.21h4712.2v1302.9H5839.6V2889.21Zm662.31,1302.9s0.19-22.55,21.71-54.29,32.4-53.4,32.57-59.72,16.29-59.71,16.29-59.71v-21.72s-19.47,12.43-27.14,5.43-32.58-21.71-32.58-21.71,4.41-4.01,0-10.86-32.57-5.43-32.57-5.43-31.96-32.34-38-43.43-28.22-21.47-81.43-48.86-123.64-87.46-141.15-114-39.63-63.74-54.29-76.01a90.065,90.065,0,0,1-21.71-27.14s0.94-22.58,10.86-32.57,23.98-46.81,43.43-65.15,38-38,38-38,33.21-50.24,54.29-59.71,46.61-21.41,59.71-32.58,29.42-75.51,97.72-97.71,125.34-.83,152,0,60.16-15.16,70.58-27.15,17.01-16.17,16.28-27.14,2.6-42.42,0-48.86-20.04-34.73-27.14-54.29-28.87-59.23-32.57-65.14-5.87-13.45,0-16.29,16.28-5.43,16.28-5.43-9.88-67.28-5.42-76,12.71-40.05,16.28-43.43,4.02-28.38,10.86-32.57,16.29-16.29,16.29-16.29,3.45-12.2,10.85-10.86,13.68-4.53,16.29-5.43,10.86-10.85,10.86-10.85h81.43s51.8,29.17,65.14,54.28,16.72,38.32,16.29,54.29,5.43,76,5.43,76,27.12-11.04,27.14,5.43-27.23,86.29-38,86.86-8.57-3.97-10.86,5.43-0.24,93.21,5.43,103.15,51.56,44.29,65.15,48.86,18.95,11.94,27.14,5.43,76.14-35.53,135.72-10.86,92.29,81.43,92.29,81.43,100.23,42.47,141.15,92.29,86.45,114.58,92.29,130.29,3.12,24.56-10.86,32.57-106.79,123.38-152.01,141.15-152.01,75.11-162.86,86.86-39.74,41.09-54.29,43.43-32.57,0-32.57,0-5.79,27.25-21.71,32.57-21.72,5.43-21.72,5.43,9.35,90.89,32.57,124.86,43.43,81.43,43.43,81.43v21.72H6501.91Zm624.3-624.31s18.37,28.18,43.43,38,43.43,16.29,43.43,16.29-33.25,46.39-38,65.14-5.43,43.43-5.43,43.43-107.13,87.78-119.43,92.29-36.56,11.97-48.86,16.29-27.14,10.86-27.14,10.86,5.59-58.62,21.71-81.43,70.3-104.04,81.44-114.01,17.28-27.39,27.14-48.86A257.073,257.073,0,0,1,7126.21,3567.8Zm-792.59,65.15s53.08-14,76-32.58,32.57-32.57,32.57-32.57,26.36,93.27,65.15,141.15,59.6,88.1,65.14,114,10.86,59.72,10.86,59.72-76.81,4.74-92.29-10.86-81.55-83.52-86.86-97.72-32.57-38-32.57-38-2.36-52.25-10.86-65.14S6333.62,3632.95,6333.62,3632.95Zm1628.62-439.73v21.71H8087.1V3095.5H7587.66v233.44h374.58v59.71H7587.66v97.72H8087.1V3247.51H7707.09v-54.29h255.15Zm217.15,222.58v70.57H8293.4V3415.8H8179.39Zm206.3-320.3v390.87h119.43V3258.36l314.87,228.01h103.14V3095.5H8798.27v233.44L8483.4,3095.5h-97.71Zm629.73,320.3v70.57h114V3415.8h-114ZM7565.94,3616.66l59.72,97.72h200.86v293.15h130.29V3714.38h217.15v-97.72H7565.94Zm662.31,0v97.72h472.3v-97.72h-472.3Zm0,146.58v86.86h331.16v-86.86H8228.25Zm0,146.57v97.72h477.73v-97.72H8228.25Zm662.31-108.57-135.72,206.29h135.72l76-114h190.01l70.57,114h146.58l-255.15-390.87H9009.99l-81.43,124.86h141.15l32.57,59.72H8890.56Zm532.02-184.58v390.87h124.86V3790.38l168.29,184.58,173.72-184.58v217.15h124.85V3616.66H9911.17l-190.01,200.86-195.44-200.86H9422.58ZM5899.13,4418.38q22.155,0,35.59-12.87a42.451,42.451,0,0,0,13.44-31.61q0-19.305-12.68-31.42-12.885-12.495-40.89-12.5-10.785,0-21.39.19-10.41.195-19.12,0.19v132.5h30.29v-45.05a139.806,139.806,0,0,0,14.76.57h0Zm16.85-44.67q0,8.145-5.02,12.21t-12.77,4.07a119.205,119.205,0,0,1-13.82-.95v-30.28c2.39,0,4.67-.03,6.81-0.1s3.72-.12,4.73-0.19,1.58-.09,1.71-0.09q18.36,0,18.36,15.33h0Zm326.52,60.76h-50.16v-24.04h42.59v-28.39h-42.59v-23.28h48.26v-28.4h-78.55v132.5h80.45v-28.39Zm259.13-17.98,32.18,46.37h36.72l-38.61-52.24q22.32-10.98,22.33-38.24,0-42.39-49.02-42.4-8.145,0-21.2.19t-23.85.19v132.5h30.28v-46.37h11.17Zm20.44-43.73q0,15.33-20.63,15.33h-10.98v-29.33q3.6,0,6.82-.1c2.14-.06,3.72-0.12,4.73-0.19s1.57-.09,1.7-0.09q18.36,0,18.36,14.38h0ZM6822.18,4434q-3.315,2.745-9.18,2.74a35.869,35.869,0,0,1-15.52-3.69,34.982,34.982,0,0,1-12.87-10.32l-17.22,20.64q4.53,10.035,17.6,15.9a64.948,64.948,0,0,0,27.26,5.86q19.68,0,32.36-10.97a34.979,34.979,0,0,0,13.06-28.02,37.656,37.656,0,0,0-4.06-17.89,32.99,32.99,0,0,0-10.23-11.92,130.174,130.174,0,0,0-13.34-8.05q-7.2-3.78-13.35-6.34a32,32,0,0,1-10.22-6.53,12.383,12.383,0,0,1-4.07-9.08,8.551,8.551,0,0,1,3.51-7.2q3.495-2.64,9.74-2.65a25.1,25.1,0,0,1,10.51,1.9,39.445,39.445,0,0,1,9.56,7l16.28-22.71q-13.635-14.58-39-14.58-19.305,0-31.04,11.17a35.978,35.978,0,0,0-11.74,27.07,35.09,35.09,0,0,0,2.18,13.44,38.714,38.714,0,0,0,5.68,10.41,45.683,45.683,0,0,0,8.52,8.04,67.567,67.567,0,0,0,9.46,6.06q4.26,2.175,9.94,4.64,19.5,9.27,19.5,17.6A9.2,9.2,0,0,1,6822.18,4434Zm259.61,12.39q19.875,18.75,50.73,18.74,30.465,0,50.35-19.3,20.055-19.305,20.06-49.22,0-31.035-19.87-49.78-19.5-18.735-50.54-18.74-31.23,0-50.92,19.69-19.5,19.5-19.5,48.83,0,31.05,19.69,49.78h0Zm23.28-78.74q10.785-11.16,27.45-11.17a37.092,37.092,0,0,1,27.25,11.17q10.98,10.98,10.98,28.96,0,17.415-10.03,28.96-10.035,11.175-28.2,11.17a35.867,35.867,0,0,1-27.07-11.55q-11.175-11.73-11.17-28.58,0-17.79,10.79-28.96h0Zm398.82-37.29v79.88l-62.84-79.88h-24.23v132.5h28.4v-79.5l62.84,79.5h24.23v-132.5h-28.4Zm276.17,104.68h52.43l10.98,27.82h32.37l-55.08-132.5h-27.07l-55.08,132.5h30.47Zm11.36-28.4,14.95-37.47,14.77,37.47h-29.72Zm374.97,27.83h-53.94V4330.36h-30.29v132.5h84.23v-28.39Zm459.97,28.39h30.28v-104.1h39.75v-28.4H8586.61v28.4h39.75v104.1Zm319.7-46.37,32.18,46.37h36.72l-38.61-52.24q22.335-10.98,22.33-38.24,0-42.39-49.02-42.4-8.145,0-21.2.19t-23.85.19v132.5h30.28v-46.37h11.17Zm20.44-43.73q0,15.33-20.63,15.33h-10.98v-29.33q3.6,0,6.82-.1c2.14-.06,3.72-0.12,4.73-0.19s1.58-.09,1.7-0.09q18.36,0,18.36,14.38h0Zm279.2,62.28h52.43l10.98,27.82h32.37l-55.08-132.5h-27.07l-55.09,132.5h30.48Zm11.36-28.4,14.95-37.47,14.76,37.47h-29.71Zm322.92-76.28h-30.29v132.5h30.29v-132.5Zm312.32,0v79.88l-62.85-79.88h-24.23v132.5h28.4v-79.5l62.84,79.5h24.23v-132.5H9892.3Zm332.2,104.11h-50.2v-24.04h42.6v-28.39h-42.6v-23.28h48.3v-28.4H10144v132.5h80.5v-28.39Zm259.1-17.98,32.2,46.37h36.7l-38.6-52.24q22.35-10.98,22.3-38.24,0-42.39-49-42.4c-5.4,0-12.5.07-21.2,0.19s-16.6.19-23.8,0.19v132.5h30.3v-46.37h11.1Zm20.5-43.73q0,15.33-20.7,15.33h-10.9v-29.33c2.4,0,4.6-.03,6.8-0.1,2.1-.06,3.7-0.12,4.7-0.19s1.6-.09,1.7-0.09c12.2,0,18.4,4.79,18.4,14.38h0Z"
     transform="translate(-5839.59 -2889.22)"
     style="fill:#ffffff;fill-opacity:1" />
</svg>
