<?xml version="1.0" encoding="UTF-8" standalone="no"?>
<svg
   width="4712.9004"
   height="1304.3691"
   viewBox="0 0 4712.9002 1304.3691"
   version="1.1"
   id="svg7"
   xmlns="http://www.w3.org/2000/svg"
   xmlns:svg="http://www.w3.org/2000/svg">
  <defs
     id="defs4" />
  <path
     id="rect1451"
     fill="#FFFFFF"
     style="fill:#ffffff;fill-rule:evenodd;stroke-width:12.3024;stroke-linecap:round;stroke-linejoin:round;paint-order:fill markers stroke"
     d="m 879.46093,0 c 0,0 -8.25134,9.9496109 -10.86132,10.84961 -2.61,0.899998 -8.88907,6.769685 -16.28907,5.429687 -7.39998,-1.339996 -10.84961,10.861328 -10.84961,10.861328 0,0 -9.45103,12.099071 -16.29101,16.289063 -6.84,4.189992 -7.28938,29.19032 -10.85938,32.570312 -3.56998,3.379994 -11.82125,34.70971 -16.28125,43.42969 -4.45998,8.71998 5.42188,76 5.42188,76 0,0 -10.41127,2.58969 -16.28125,5.42969 -5.87,2.84 -3.7,10.38103 0,16.29101 3.69998,5.91 25.47033,45.57872 32.57031,65.13868 7.09998,19.55996 24.54064,47.85103 27.14062,54.29101 2.6,6.44 -0.72998,37.8894 0,48.85938 0.73,10.96998 -5.86128,15.15064 -16.28124,27.14062 -10.41998,11.98998 -43.92014,27.98039 -70.58008,27.15039 -26.65996,-0.83 -83.70014,-22.19994 -152,0 -68.29986,22.19996 -84.61879,86.53901 -97.71875,97.70899 -13.09998,11.16998 -38.63098,23.1101 -59.71094,32.58008 -21.07996,9.46998 -54.28906,59.71093 -54.28906,59.71093 0,0 -18.55004,19.66004 -38,38 -19.44996,18.33996 -33.50971,55.15846 -43.42969,65.14844 -9.91998,9.98998 -10.86133,32.57031 -10.86133,32.57031 5.40619,10.37068 12.78045,19.58918 21.71094,27.14063 14.65996,12.26998 36.7791,49.46982 54.28906,76.00976 17.50996,26.53996 87.94051,86.61006 141.15039,114 53.2099,27.38999 75.38971,37.76939 81.42969,48.85939 6.03998,11.09 38,43.4317 38,43.4317 0,0 28.16033,-1.4202 32.57031,5.4296 4.41,6.85 0,10.8594 0,10.8594 0,0 24.9101,14.711 32.58008,21.711 7.66998,7 27.14062,-5.4317 27.14062,-5.4317 v 21.7207 c 0,0 -16.12101,53.391 -16.29101,59.711 -0.17,6.32 -11.05035,27.9787 -32.57031,59.7187 -21.51996,31.74 -21.70899,54.291 -21.70899,54.291 h 542.86916 v -21.7207 c 0,0 -20.2099,-47.4597 -43.4297,-81.4297 -23.22,-33.9698 -32.5703,-124.8593 -32.5703,-124.8593 0,0 5.8007,-0.1117 21.7207,-5.4317 15.9198,-5.32 21.7089,-32.5683 21.7089,-32.5683 0,0 18.0204,2.34 32.5704,0 14.5498,-2.34 43.441,-31.6817 54.291,-43.43171 10.85,-11.74998 117.6395,-69.0894 162.8593,-86.85938 45.22,-17.76996 138.0298,-133.14039 152.0098,-141.15039 13.98,-8.00998 16.7013,-16.86035 10.8613,-32.57031 -5.84,-15.70996 -51.371,-80.46916 -92.291,-130.28906 -40.9198,-49.8199 -141.1504,-92.29102 -141.1504,-92.29102 0,0 -32.7092,-56.75974 -92.289,-81.42968 -59.58,-24.66996 -127.5307,4.35134 -135.7207,10.86132 -8.19,6.51 -13.5507,-0.86164 -27.1407,-5.43164 -13.5898,-4.56998 -59.4784,-38.91939 -65.1484,-48.85937 -5.67,-9.93998 -7.7216,-93.75041 -5.4316,-103.15039 2.29,-9.39998 0.091,-4.85969 10.8613,-5.42969 10.77,-0.57 38.02,-70.3894 38,-86.85938 -0.02,-16.46996 -27.1406,-5.42968 -27.1406,-5.42968 0,0 -5.8597,-60.03004 -5.4297,-76 0.43,-15.969978 -2.9512,-29.181073 -16.291,-54.291023 C 1012.6893,29.169347 960.89062,0 960.89062,0 Z m 868.59957,206.28907 v 233.4414 h 374.5801 v 59.70899 h -374.5801 v 97.7207 H 2247.5 V 358.29883 h -380.0098 v -54.28906 h 255.1504 v 21.71094 H 2247.5 V 206.28907 Z m 798.0293,0 v 390.87109 h 119.4297 V 369.15039 l 314.8711,228.00977 h 103.1387 V 206.28907 h -124.8594 v 233.4414 L 2643.8007,206.28907 Z M 2339.791,526.58985 v 70.57031 h 114.0097 v -70.57031 z m 836.0293,0 v 70.57031 h 114 v -70.57031 z m -2573.23046,152 c 0,0 26.36047,93.27049 65.15039,141.15039 38.78992,47.8799 59.60064,88.10004 65.14062,114 5.54,25.89994 10.85938,59.71875 10.85938,59.71875 0,0 -76.8091,4.7406 -92.28906,-10.85938 -15.47998,-15.59996 -81.55135,-83.52072 -86.86133,-97.7207 -5.31,-14.19998 -32.57031,-38 -32.57031,-38 0,0 -2.3594,-52.24869 -10.85938,-65.13867 -8.49998,-12.88998 -27.14062,-38 -27.14062,-38 0,0 53.08004,-14.00012 76,-32.58008 22.91994,-18.57996 32.57031,-32.57031 32.57031,-32.57031 z m 684.01946,0 c 0,0 18.3717,28.18002 43.4317,38 25.06,9.81998 43.4297,16.28906 43.4297,16.28906 0,0 -33.25,46.39065 -38,65.14063 -4.75,18.74996 -5.4297,43.42968 -5.4297,43.42968 0,0 -107.1317,87.78102 -119.4317,92.29102 -12.2998,4.50998 -36.5593,11.96908 -48.8593,16.28906 -12.3,4.32 -27.1407,10.86133 -27.1407,10.86133 0,0 5.591,-58.62168 21.711,-81.43164 16.12,-22.80996 70.2994,-104.03979 81.4394,-114.00977 11.14,-9.96998 17.2807,-27.38941 27.1407,-48.85937 6.143,-13.26071 13.4056,-25.97343 21.7089,-38 z m 439.7305,48.85937 59.7207,97.72071 h 200.8594 v 293.15037 h 130.291 V 825.16993 h 217.1484 v -97.72071 z m 662.3106,0 v 97.72071 h 472.3007 v -97.72071 z m 781.7402,0 -81.4297,124.86133 h 141.1484 l 32.5704,59.71875 h -211.7188 l -135.7207,206.291 h 135.7207 l 76,-114 h 190.0098 l 70.5703,114 h 146.5801 L 3278.9707,727.44922 Z m 412.5898,0 v 390.87108 h 124.8594 V 901.16993 l 168.291,184.58007 173.7188,-184.58007 v 217.15037 h 124.8515 V 727.44922 H 4071.5703 L 3881.5605,928.31055 3686.1211,727.44922 Z m -1194.33,146.58008 v 86.86133 h 331.1601 V 874.0293 Z m 0,146.5703 v 97.7207 h 477.7304 v -97.7207 z M 0,1302.9004 v 1.4688 c 0,-0.8134 0.65535072,-1.4688 1.46875,-1.4688 z" />
</svg>
