<?xml version="1.0" encoding="UTF-8" standalone="no"?>
<svg
   color="#262626"
   fill="#262626"
   height="24"
   role="img"
   viewBox="0 0 24 24"
   width="24"
   version="1.1"
   id="svg1545"
   xmlns="http://www.w3.org/2000/svg"
   xmlns:svg="http://www.w3.org/2000/svg">
  <defs
     id="defs1549" />
  <path
     d="M12.003 2.001a9.705 9.705 0 1 1 0 19.4 10.876 10.876 0 0 1-2.895-.384.798.798 0 0 0-.533.04l-1.984.876a.801.801 0 0 1-1.123-.708l-.054-1.78a.806.806 0 0 0-.27-.569 9.49 9.49 0 0 1-3.14-7.175 9.65 9.65 0 0 1 10-9.7Z"
     fill="none"
     stroke="#000000"
     stroke-miterlimit="10"
     stroke-width="1.739"
     id="path1541"
     style="stroke:#ffffff;stroke-opacity:1" />
  <path
     d="m 10.519162,13.391916 v -0.578125 q 0,-0.398437 0.07813,-0.71875 0.08594,-0.328125 0.25,-0.617187 0.171875,-0.296875 0.4375,-0.570313 0.265625,-0.28125 0.640625,-0.578125 0.328125,-0.257812 0.554688,-0.4609372 0.226562,-0.203125 0.367187,-0.3984375 0.140625,-0.203125 0.203125,-0.421875 0.0625,-0.21875 0.0625,-0.5078125 0,-0.4453125 -0.304687,-0.734375 -0.296875,-0.2890625 -0.914063,-0.2890625 -0.539062,0 -1.164062,0.2265625 -0.617188,0.2265625 -1.2812503,0.5546875 l -0.79688,-1.7265625 q 0.3359375,-0.1953125 0.7265625,-0.3671875 0.3984375,-0.1796875 0.8203128,-0.3125 0.429687,-0.140625 0.867187,-0.21875 0.4375,-0.078125 0.859375,-0.078125 0.796875,0 1.4375,0.1953125 0.640625,0.1875 1.085938,0.5546875 0.445312,0.3671875 0.679687,0.890625 0.242188,0.5234375 0.242188,1.1953125 0,0.4921875 -0.109375,0.8828125 -0.109375,0.3828125 -0.328125,0.7187497 -0.210938,0.328125 -0.539063,0.640625 -0.320312,0.304688 -0.75,0.648438 -0.328125,0.257812 -0.539062,0.453125 -0.203125,0.1875 -0.320313,0.359375 -0.117187,0.171875 -0.164062,0.359375 -0.03906,0.179687 -0.03906,0.429687 v 0.46875 z m -0.257812,2.671875 q 0,-0.367187 0.101562,-0.617187 0.109375,-0.257813 0.296875,-0.414063 0.1875,-0.15625 0.4375,-0.226562 0.257813,-0.07031 0.546875,-0.07031 0.273438,0 0.515625,0.07031 0.25,0.07031 0.4375,0.226562 0.1875,0.15625 0.296875,0.414063 0.109375,0.25 0.109375,0.617187 0,0.351563 -0.109375,0.601563 -0.109375,0.25 -0.296875,0.414062 -0.1875,0.164063 -0.4375,0.234375 -0.242187,0.07813 -0.515625,0.07813 -0.289062,0 -0.546875,-0.07813 -0.25,-0.07031 -0.4375,-0.234375 -0.1875,-0.164062 -0.296875,-0.414062 -0.101562,-0.25 -0.101562,-0.601563 z"
     style="font-weight:600;font-size:16px;line-height:1.25;font-family:'Droid Sans';-inkscape-font-specification:'Droid Sans Semi-Bold';letter-spacing:0px;word-spacing:0px;fill:#ffffff"
     id="path948" />
</svg>
