<?xml version="1.0" encoding="UTF-8" standalone="no"?>
<svg
   color="#262626"
   fill="#262626"
   height="24"
   role="img"
   viewBox="0 0 24 24"
   width="24"
   version="1.1"
   id="svg1545"
   xml:space="preserve"
   xmlns="http://www.w3.org/2000/svg"
   xmlns:svg="http://www.w3.org/2000/svg"><defs
     id="defs1549" /><path
     style="fill:#ffffff;stroke-width:0.154713"
     d="m 17.972392,21.463753 c -0.182264,-0.07355 -1.411413,-0.939404 -2.731441,-1.924107 -1.320029,-0.984702 -2.454138,-1.790369 -2.520241,-1.790369 -0.0661,0 -0.690809,0.556967 -1.38823,1.237705 -0.697427,0.680738 -1.3361054,1.237705 -1.4192894,1.237705 -0.186442,0 -0.348135,-1.618255 -0.349602,-3.498862 l -0.0011,-1.410235 4.5926244,-4.159437 c 2.525944,-2.2876918 4.620374,-4.2464646 4.654289,-4.35283 0.03391,-0.1063649 -0.03845,-0.1933913 -0.160813,-0.1933913 -0.122359,0 -2.820075,1.6397612 -5.994922,3.6439113 L 6.8812164,13.897756 4.4700589,13.17025 C 3.1439222,12.77012 1.9060852,12.374107 1.7193081,12.290219 1.2095408,12.06126 1.1471774,11.703814 1.5498416,11.318892 1.9622153,10.92469 21.29384,3.4769908 21.904677,3.4769908 c 0.494586,0 0.808428,0.4098321 0.808428,1.0556843 0,0.3656586 -2.698978,13.4361799 -3.328966,16.1214089 -0.09732,0.414806 -0.611313,0.967192 -0.886967,0.953215 -0.106367,-0.0053 -0.342516,-0.06999 -0.52478,-0.143546 z"
     id="path8218" /></svg>
