<?xml version="1.0" encoding="UTF-8" standalone="no"?>
<svg
   color="#262626"
   fill="#262626"
   height="24"
   role="img"
   viewBox="0 0 24 24"
   width="24"
   version="1.1"
   id="svg1545"
   xml:space="preserve"
   xmlns="http://www.w3.org/2000/svg"
   xmlns:svg="http://www.w3.org/2000/svg"><defs
     id="defs1549" /><path
     id="rect354"
     style="fill:#ffffff;fill-opacity:1;fill-rule:evenodd;stroke:none;stroke-width:0.0523845;stroke-linecap:round;stroke-linejoin:round;paint-order:fill markers stroke"
     d="m 0.28033857,4.6769596 0.0425573,0.7879162 C 0.54352925,9.5471254 1.647721,12.856095 3.577185,15.217611 c 1.7916665,2.192864 4.5222133,3.633994 7.535804,3.977236 0.903434,0.10289 0.972314,0.107607 1.714879,0.118173 l 0.695219,0.01002 v -2.622501 -2.622502 l 0.231741,0.03529 c 0.968186,0.147551 2.123368,0.5955 2.88156,1.117367 1.210786,0.833385 2.303096,2.268703 2.820376,3.706104 l 0.138943,0.386234 h 2.061925 c 1.660643,0 2.062029,-0.01581 2.062029,-0.08113 0,-0.135384 -0.338562,-1.09219 -0.583597,-1.649498 -1.001527,-2.277881 -3.133141,-4.520505 -5.314476,-5.591131 -0.04297,-0.02108 -0.03938,-0.04432 0.01052,-0.06774 0.279414,-0.131004 1.250771,-0.894664 1.779338,-1.398932 1.537152,-1.4664888 2.638194,-3.2931397 3.118107,-5.1727706 0.06869,-0.2690083 0.124925,-0.5330548 0.124925,-0.5868717 0,-0.087117 -0.206092,-0.097916 -1.879809,-0.097916 H 19.094866 L 18.95766,5.0941198 C 18.452232,6.6310501 17.330294,8.279588 16.131758,9.2462095 15.489535,9.7641644 14.516045,10.273951 13.95565,10.385778 l -0.401685,0.0801 -0.01606,-2.8944497 -0.01606,-2.8944516 H 11.637644 9.7534382 v 5.067393 c 0,2.7870563 -0.00962,5.0673853 -0.021282,5.0673853 -0.1089165,0 -0.825415,-0.293624 -1.1444803,-0.469006 C 8.024973,14.033462 7.5585647,13.660967 7.043146,13.109062 5.4924066,11.448545 4.6025816,8.978872 4.3668279,5.6811976 L 4.2951084,4.676991 H 2.2877157 Z" /></svg>
