<?xml version="1.0" encoding="UTF-8" standalone="no"?>
<svg
   color="#262626"
   fill="#262626"
   height="24"
   role="img"
   viewBox="0 0 24 24"
   width="24"
   version="1.1"
   id="svg1545"
   xmlns="http://www.w3.org/2000/svg"
   xmlns:svg="http://www.w3.org/2000/svg">
  <defs
     id="defs1549" />
  <path
     style="fill:#ffffff;stroke-width:0.0724289"
     d="m 1.3947914,22.851401 c 0,-0.01056 0.4163479,-1.273515 0.9252099,-2.806625 L 3.2452168,17.257307 2.9037109,16.605444 C 2.5336332,15.899042 2.1266808,14.752965 1.939272,13.889359 1.7530244,13.031095 1.7133363,11.18752 1.8609038,10.248855 2.3227725,7.3108994 3.8155507,4.901061 6.2547633,3.1556967 9.3285952,0.95623343 13.554534,0.63711313 17.003236,2.344014 c 4.934797,2.4424376 7.167034,8.249789 5.139422,13.370619 -1.312882,3.31574 -4.267345,5.759942 -7.835961,6.48262 -0.971227,0.196683 -3.135209,0.177238 -4.125433,-0.03707 C 9.3109452,21.971823 8.356957,21.645827 7.6823007,21.306244 L 7.1976981,21.062328 4.3748266,21.966439 C 1.8086901,22.788321 1.3947914,22.911234 1.3947914,22.851398 Z M 13.562858,20.51868 c 1.053437,-0.161851 1.693863,-0.364281 2.643659,-0.835631 0.970114,-0.48143 1.629346,-0.948694 2.337376,-1.656724 C 21.896521,14.6737 21.995901,9.3261999 18.770632,5.8259491 17.856802,4.8342052 16.540333,3.9673898 15.245647,3.504967 13.524226,2.8901203 11.355962,2.8575052 9.6312202,3.4205235 8.3554679,3.8369664 7.2460428,4.5012872 6.2717175,5.4321715 4.1584131,7.4512517 3.1746078,10.272028 3.5998603,13.092941 c 0.1825739,1.211098 0.6875352,2.546199 1.3148019,3.476288 l 0.268659,0.398359 -0.551142,1.611547 c -0.319458,0.934108 -0.5163836,1.611541 -0.4684561,1.611541 0.0455,0 0.8078981,-0.230844 1.6942592,-0.512989 l 1.6115734,-0.51299 0.4935337,0.291827 c 1.6137108,0.954187 3.7120246,1.352196 5.5997686,1.062156 z m 0.434574,-3.680914 C 12.274754,16.231143 11.19713,15.613567 10.161813,14.639611 8.8092292,13.367201 7.4346603,11.299517 7.1563156,10.118628 6.8669707,8.8910507 7.1712006,7.8006275 8.0217532,7.0166035 8.3962013,6.6714504 8.5653678,6.6185768 9.1581032,6.6614532 c 0.332042,0.024016 0.472505,0.068819 0.561899,0.179222 0.06556,0.08096 0.3236128,0.7034019 0.5734488,1.383199 L 10.747702,9.45987 10.623657,9.7009228 c -0.06823,0.132582 -0.301206,0.4432682 -0.517726,0.6904172 -0.4496058,0.513212 -0.4495538,0.505469 -0.0082,1.191173 0.49869,0.774707 1.011907,1.360454 1.617495,1.846085 0.594246,0.476526 1.723898,1.112619 1.97593,1.112619 0.139375,0 0.548281,-0.396311 1.022917,-0.991422 0.293211,-0.367634 0.370444,-0.401669 0.675529,-0.297695 0.370336,0.126211 2.254247,1.146992 2.361045,1.279316 0.109372,0.135511 0.07423,0.489933 -0.106916,1.078008 -0.145287,0.471702 -0.566734,0.882038 -1.219806,1.187646 -0.3684,0.172397 -0.588149,0.222209 -1.099445,0.249229 -0.585942,0.03098 -0.696181,0.01363 -1.327101,-0.208533 z"
     id="path7635" />
</svg>
